<svg width="15" height="9" viewBox="0 0 15 9" fill="none" xmlns="http://www.w3.org/2000/svg">
<g id="Frame" clip-path="url(#clip0_49_491)">
<path id="Vector" d="M0.803536 5.30369L11.4107 5.30369L9.08032 7.63405C8.75889 7.95548 8.75889 8.43762 9.08032 8.75905C9.40175 9.08048 9.88389 9.08048 10.2053 8.75905L13.9018 5.06262C14.2232 4.74119 14.2232 4.25905 13.9018 3.93762L10.2053 0.241193C9.88389 -0.0802349 9.40175 -0.0802349 9.08032 0.241193C8.75889 0.562622 8.75889 1.04476 9.08032 1.36619L11.4107 3.69655L0.803536 3.69655C0.40175 3.69655 -3.58041e-05 4.01798 -3.58462e-05 4.50012C-3.58884e-05 4.98226 0.40175 5.30369 0.803536 5.30369Z" fill="#4089ED"/>
</g>
<defs>
<clipPath id="clip0_49_491">
<rect width="14.1429" height="9" fill="white" transform="translate(14.1428 9.00012) rotate(-180)"/>
</clipPath>
</defs>
</svg>
