<svg width="16" height="15" viewBox="0 0 16 15" fill="none" xmlns="http://www.w3.org/2000/svg">
<path fill-rule="evenodd" clip-rule="evenodd" d="M10.776 10.4601L11.0982 10.0894C11.7675 9.239 12.1667 8.1661 12.1667 6.99992C12.1667 4.23849 9.9281 1.99992 7.16667 1.99992C4.40524 1.99992 2.16667 4.23849 2.16667 6.99992C2.16667 9.7613 4.40524 11.9999 7.16667 11.9999C8.5853 11.9999 9.866 11.4091 10.776 10.4601ZM12.771 10.6119L15.8317 13.2725L14.6777 14.6L11.6308 11.9514C10.449 13.0175 8.8836 13.6666 7.16667 13.6666C3.48477 13.6666 0.5 10.6818 0.5 6.99992C0.5 3.31802 3.48477 0.333252 7.16667 0.333252C10.8486 0.333252 13.8333 3.31802 13.8333 6.99992C13.8333 8.3311 13.4432 9.5711 12.771 10.6119Z" fill="black"/>
</svg>
